<?xml version="1.0" standalone="no"?>
<!DOCTYPE svg PUBLIC "-//W3C//DTD SVG 20010904//EN"
 "http://www.w3.org/TR/2001/REC-SVG-20010904/DTD/svg10.dtd">
<svg version="1.0" xmlns="http://www.w3.org/2000/svg"
 width="662.000000pt" height="662.000000pt" viewBox="0 0 662.000000 662.000000"
 preserveAspectRatio="xMidYMid meet">
<metadata>
Created by potrace 1.14, written by Peter Selinger 2001-2017
</metadata>
<g transform="translate(0.000000,662.000000) scale(0.100000,-0.100000)"
fill="#000000" stroke="none">
<path d="M3467 5404 c-3 -4 9 -24 28 -46 33 -40 37 -65 10 -65 -8 0 -15 4 -15
9 0 10 -23 6 -31 -5 -3 -4 -12 0 -20 9 -12 15 -12 17 0 9 9 -5 12 -4 7 3 -4 6
2 20 13 31 20 20 18 31 -6 31 -8 0 -12 -4 -9 -9 3 -5 -5 -20 -17 -33 -13 -14
-21 -30 -19 -36 2 -7 0 -12 -6 -12 -5 0 -33 -37 -63 -82 -29 -46 -57 -84 -61
-86 -5 -2 -8 -10 -8 -18 0 -8 -7 -17 -15 -20 -8 -4 -12 -10 -9 -15 3 -5 0 -9
-5 -9 -6 0 -11 -6 -12 -12 0 -7 -16 -33 -34 -58 -19 -25 -48 -69 -65 -97 -16
-29 -35 -53 -41 -53 -5 0 -7 -4 -4 -10 3 -5 2 -10 -2 -10 -5 0 -13 -9 -18 -20
-19 -38 -168 -265 -177 -268 -4 -2 -6 -8 -2 -13 3 -5 0 -9 -5 -9 -6 0 -11 -7
-11 -15 0 -8 -4 -15 -10 -15 -5 0 -10 -7 -10 -15 0 -8 -4 -15 -10 -15 -5 0
-10 -7 -10 -15 0 -8 -4 -15 -8 -15 -5 0 -14 -16 -22 -35 -8 -20 -22 -43 -32
-52 -10 -9 -18 -22 -18 -30 0 -7 -7 -16 -15 -19 -8 -4 -13 -9 -10 -14 2 -4 -3
-16 -13 -26 -24 -27 -55 -84 -45 -84 4 0 -3 -7 -15 -16 -12 -8 -22 -19 -22
-25 0 -12 -51 -91 -65 -101 -5 -4 -6 -8 -1 -8 4 0 -3 -15 -17 -34 -15 -18 -28
-40 -29 -47 -3 -13 -7 -19 -35 -53 -6 -7 -9 -17 -6 -20 4 -3 0 -6 -7 -6 -7 0
-11 -3 -7 -6 3 -4 -4 -21 -17 -38 -12 -17 -31 -49 -41 -71 -11 -22 -26 -48
-33 -57 -15 -18 -8 -78 9 -78 5 0 9 -15 9 -34 0 -37 -15 -46 -76 -46 -29 0
-41 -10 -42 -34 0 -5 -6 -12 -14 -17 -7 -5 -13 -12 -14 -16 -2 -21 -24 -61
-36 -66 -10 -4 -10 -6 0 -6 13 -1 11 -5 -26 -46 -7 -8 -11 -15 -8 -15 2 0 -15
-41 -40 -90 -24 -50 -44 -94 -44 -99 0 -5 -7 -14 -15 -21 -8 -7 -14 -18 -14
-24 1 -6 -3 -24 -9 -39 -7 -16 -12 -33 -12 -38 0 -5 -5 -9 -11 -9 -5 0 -8 -4
-4 -9 3 -5 1 -12 -5 -16 -6 -4 -8 -11 -5 -16 4 -5 1 -9 -6 -9 -6 0 -9 -8 -6
-20 3 -11 1 -20 -5 -20 -5 0 -6 -4 -3 -10 3 -5 1 -10 -5 -10 -7 0 -10 -7 -6
-15 3 -8 1 -15 -4 -15 -5 0 -12 -15 -15 -32 -3 -18 -8 -42 -10 -53 -2 -11 -4
-20 -5 -20 -1 0 -4 -9 -6 -20 -9 -38 -4 -240 6 -240 1 0 3 -13 4 -28 1 -16 8
-32 16 -37 8 -6 12 -10 8 -10 -11 0 13 -60 24 -60 5 0 7 -4 3 -9 -3 -5 -1 -12
5 -16 6 -4 8 -11 5 -16 -4 -5 -1 -9 6 -9 7 0 10 -3 7 -6 -3 -3 5 -17 18 -31
13 -14 22 -28 20 -30 -2 -3 3 -13 12 -22 33 -35 52 -61 52 -72 0 -5 4 -7 10
-4 6 3 10 1 10 -5 0 -11 125 -138 136 -139 2 0 24 -17 48 -37 24 -20 47 -36
51 -35 3 1 15 -7 24 -18 10 -12 21 -21 25 -21 4 0 22 -11 40 -25 18 -14 36
-22 39 -18 4 3 7 1 7 -5 0 -7 7 -12 15 -12 8 0 24 -9 34 -19 11 -11 22 -17 25
-14 3 4 14 -1 24 -10 10 -10 22 -14 25 -10 4 3 7 1 7 -5 0 -7 3 -12 8 -11 15
2 52 -14 52 -23 0 -5 4 -7 9 -3 5 3 15 0 23 -7 7 -7 22 -15 33 -16 11 -2 24
-8 29 -13 6 -5 18 -9 28 -9 10 0 18 -3 18 -8 0 -7 63 -32 88 -34 6 -1 12 -5
12 -10 0 -5 4 -7 9 -4 5 3 14 -1 21 -9 7 -8 21 -15 32 -15 10 0 38 -9 60 -20
23 -11 48 -20 55 -20 7 0 13 -5 13 -11 0 -5 4 -8 8 -5 10 6 169 -69 195 -92 9
-8 17 -12 17 -9 0 7 45 -30 84 -70 17 -18 34 -33 38 -33 4 0 26 19 50 43 48
47 108 92 108 81 0 -4 8 0 18 8 20 18 181 91 199 91 7 0 13 4 13 9 0 4 9 8 20
8 11 0 20 4 20 9 0 7 16 13 79 27 8 1 18 9 22 16 5 7 9 10 9 5 0 -4 15 0 33
10 17 9 37 17 42 18 6 1 24 7 40 15 17 7 33 13 38 12 4 -1 7 3 7 9 0 5 4 8 9
4 5 -3 12 -1 16 5 3 5 13 10 22 10 8 0 29 10 46 22 18 13 28 16 23 7 -4 -7 0
-5 8 5 9 11 19 17 22 13 4 -3 13 1 21 9 8 8 18 12 23 9 4 -3 11 2 14 11 3 8
10 13 15 10 5 -3 14 1 21 9 7 8 19 15 26 15 8 0 14 5 14 11 0 5 5 7 10 4 6 -3
10 -1 10 5 0 6 4 9 9 6 5 -3 12 1 15 10 3 8 10 13 15 10 5 -4 11 -3 13 1 1 5
29 26 60 47 32 21 88 68 125 104 37 36 71 65 76 64 4 -1 7 2 7 6 0 8 39 59 75
98 11 12 21 28 23 35 2 8 11 23 20 34 27 31 52 82 45 89 -3 3 -1 6 5 6 6 0 14
16 18 35 3 19 10 38 15 41 5 3 9 18 9 35 0 16 4 29 8 29 10 0 9 231 -1 247 -3
5 -8 20 -11 34 -2 13 -11 43 -19 66 -9 22 -13 44 -10 47 4 3 2 6 -4 6 -6 0
-14 12 -17 28 -8 35 -88 216 -98 220 -4 2 -4 10 -1 18 3 8 0 14 -6 14 -6 0
-11 9 -11 20 0 11 -5 20 -11 20 -5 0 -7 5 -4 10 3 6 1 10 -4 10 -6 0 -11 8
-11 19 0 10 -7 24 -15 31 -8 7 -13 16 -10 20 2 4 -4 16 -14 26 -9 11 -16 25
-13 32 2 6 -1 12 -8 12 -6 0 -8 5 -5 10 3 6 1 10 -4 10 -6 0 -10 3 -9 8 1 4
-6 21 -16 37 -11 17 -24 39 -31 49 -12 20 -65 29 -65 11 0 -6 -3 -6 -8 1 -4 6
-15 13 -24 17 -19 7 -25 57 -7 57 5 0 8 4 5 9 -3 5 1 11 9 14 8 4 12 14 11 24
-6 27 -39 93 -47 93 -4 0 -9 8 -11 18 -9 31 -12 37 -32 55 -12 10 -15 16 -8
12 18 -9 15 3 -9 28 -11 12 -25 31 -30 42 -4 11 -22 43 -39 70 -17 28 -33 58
-36 68 -4 9 -10 17 -15 17 -5 0 -9 7 -9 15 0 8 -4 15 -10 15 -5 0 -10 7 -10
15 0 8 -5 15 -11 15 -5 0 -7 5 -4 10 3 6 0 13 -8 15 -7 3 -20 21 -27 40 -8 19
-17 35 -22 35 -4 0 -8 7 -8 15 0 8 -3 15 -7 15 -5 0 -17 18 -27 40 -11 22 -23
40 -28 40 -5 0 -6 5 -3 10 3 6 1 10 -4 10 -6 0 -11 7 -11 15 0 8 -4 15 -10 15
-5 0 -10 7 -10 15 0 8 -4 15 -9 15 -10 0 -27 39 -23 53 1 4 -5 7 -13 7 -14 0
-19 12 -16 33 0 4 -4 7 -9 7 -6 0 -10 7 -10 15 0 8 -4 15 -10 15 -5 0 -10 5
-10 10 0 6 -9 20 -20 32 -11 12 -20 28 -20 35 0 7 -4 13 -10 13 -5 0 -10 7
-10 15 0 8 -4 15 -9 15 -5 0 -11 10 -15 23 -3 12 -16 34 -30 48 -14 15 -22 29
-19 33 3 3 -2 8 -11 12 -9 3 -16 13 -16 21 0 9 -9 24 -21 34 -11 9 -20 21 -20
26 0 7 -66 110 -79 123 -7 7 -27 39 -50 83 -11 20 -25 37 -30 37 -6 0 -10 7
-10 15 0 8 -4 15 -9 15 -5 0 -14 14 -21 30 -7 17 -17 30 -22 30 -5 0 -7 4 -4
9 3 5 -1 11 -9 15 -8 3 -15 12 -15 21 0 8 -5 15 -11 15 -5 0 -7 5 -4 10 3 6 3
10 -2 10 -4 0 -26 27 -47 60 -22 32 -44 56 -49 53 -6 -3 -7 -1 -3 6 4 6 1 18
-8 26 -16 17 -20 18 -29 9z"/>
</g>
</svg>
